<svg xmlns="http://www.w3.org/2000/svg" xmlns:xlink="http://www.w3.org/1999/xlink" viewBox="0 0 224 618">
  <defs>
    <style>
      .cls-1 {
        clip-path: url(#clip-bobber);
      }

      .cls-2 {
        fill: url(#linear-gradient);
      }

      .cls-3 {
        fill: url(#linear-gradient-2);
      }

      .cls-4 {
        fill: url(#linear-gradient-3);
      }
    </style>
    <linearGradient id="linear-gradient" x1="0.071" y1="0.586" x2="0.926" y2="0.44" gradientUnits="objectBoundingBox">
      <stop offset="0" stop-color="#fff6cc"/>
      <stop offset="0.248" stop-color="#fff"/>
      <stop offset="1" stop-color="#b3b3b3"/>
    </linearGradient>
    <linearGradient id="linear-gradient-2" x1="1.116" y1="0.396" x2="0.197" y2="0.457" gradientUnits="objectBoundingBox">
      <stop offset="0" stop-color="#fff6cc"/>
      <stop offset="0.416" stop-color="#fff"/>
      <stop offset="1" stop-color="#a3a3a3"/>
    </linearGradient>
    <linearGradient id="linear-gradient-3" x1="0.923" y1="0.579" x2="-0.24" y2="0.607" gradientUnits="objectBoundingBox">
      <stop offset="0" stop-color="#b3b3b3"/>
      <stop offset="0.365" stop-color="#fff"/>
      <stop offset="0.488" stop-color="#fff"/>
      <stop offset="1" stop-color="#fff6cc"/>
    </linearGradient>
    <clipPath id="clip-bobber">
      <rect width="224" height="618"/>
    </clipPath>
  </defs>
  <g id="bobber" class="cls-1">
    <g id="Group_7" data-name="Group 7" transform="translate(-59 -1)">
      <path id="Path_10" data-name="Path 10" class="cls-2" d="M2432.02-1529.515c1.083,27.371,7.645,28.21,7.645,28.21s12.122,8.32,18.255,9.4a268.306,268.306,0,0,0,32.564,4.211c14.187.818,45.258,1.492,59.158,4.088s11.834,3.351,14.492,5.822.576-74.956-14.492-73.548-32.178,4.6-48.468,6.192-19.134,1.462-40.925,4.81S2432.02-1529.515,2432.02-1529.515Z" transform="translate(-2329 2075)"/>
      <path id="Path_11" data-name="Path 11" class="cls-3" d="M2549.74-1550.939c1.185,1.659,14.656,73.97,14.656,73.97s7.285-12.353,16.132-19.636c4.266-2.053,2.907-10.366,2.774-20.486.11-15.614-1.242-35.018-1.242-35.018S2548.554-1552.6,2549.74-1550.939Z" transform="translate(-2329 2075)"/>
      <path id="Path_12" data-name="Path 12" class="cls-4" d="M2552.083-1560.936c-.692.588-70.021,17.274-94.436,3.383-4.175-2.375-5.347-15.631-7.113-30.656-3.094-33.921-6.819-62.108-8.174-103.164-2.649-80.278-2.473-164.066-2.473-164.066s13.991-152.295,28.27-195.625c2.57-7.8,1.688,7.115,4.115,12.633,6.3,44.195,21.4,142.131,21.4,142.131s15.41,91.129,20.062,116.171,28.812,152.5,31.7,174.223S2552.775-1561.524,2552.083-1560.936Z" transform="translate(-2329 2075)"/>
    </g>
  </g>
</svg>
